# xmcd
#
# Track frame offsets:
#	150
#	18229
#	35908
#	61405
#	76127
#	90095
#	104553
#	119642
#	132392
#	159914
#	176790
#
# Disc length: 2680 seconds
#
# Revision: 1
# Processed by: cddbd v1.5.1PL2 Copyright (c) Steve Scherf et al.
# Submitted via: audiograbber 1.83.01
#
DISCID=8b0a760b
DTITLE=Das Bierbeben - Alles fällt
DYEAR=2006
DGENRE=
TTITLE0=Im Kreis
TTITLE1=Don´t drink the water
TTITLE2=Bis die Liebe nicht mehr weh tut
TTITLE3=Warum faltest du die Hände
TTITLE4=Ihr
TTITLE5=Der heimliche Aufmarsch
TTITLE6=Alles fällt
TTITLE7=Kein schöner Land
TTITLE8=Häuser
TTITLE9=Des Nachts
TTITLE10=Keiner wird Dein Herr sein
EXTD=
EXTT0=
EXTT1=
EXTT2=
EXTT3=
EXTT4=
EXTT5=
EXTT6=
EXTT7=
EXTT8=
EXTT9=
EXTT10=
PLAYORDER=
